<?xml version="1.0"?>
<svg xmlns="http://www.w3.org/2000/svg" viewBox="0 0 512 512" width="512" height="512"><g id="_02-car" data-name="02-car"><g id="linear_color" data-name="linear color"><path d="M484.973,287.049l-93.5-40.877L335.52,177.311A35.824,35.824,0,0,0,307.58,164H83.78a43.76,43.76,0,0,0-39.353,24.323L8.642,259.884A44.279,44.279,0,0,0,4,279.55V376a36.04,36.04,0,0,0,36,36H53.207a60.006,60.006,0,0,0,117.586,0H357.208a60,60,0,0,0,117.606-.12A36.041,36.041,0,0,0,508,376V320.63A36.168,36.168,0,0,0,484.973,287.049ZM316.887,192.438,358.786,244H268V188h39.58A11.927,11.927,0,0,1,316.887,192.438ZM196,188v56H94.08l26.909-56ZM65.893,199.057A19.891,19.891,0,0,1,83.78,188H94.362L67.453,244H43.418ZM112,436a36,36,0,1,1,36-36A36.04,36.04,0,0,1,112,436Zm304,0a36,36,0,1,1,36-36A36.04,36.04,0,0,1,416,436Zm68-60a12.013,12.013,0,0,1-9.278,11.677A60,60,0,0,0,357.208,388H170.793a60.006,60.006,0,0,0-117.586,0H40a12.013,12.013,0,0,1-12-12V279.55a20.147,20.147,0,0,1,2.113-8.943l1.3-2.607H208a12,12,0,0,0,12-12V188h24v68a12,12,0,0,0,12,12H381.491l94.132,41.155q.294.129.594.241A12.053,12.053,0,0,1,484,320.63Z"/><circle cx="112" cy="400" r="12"/><circle cx="416" cy="400" r="12"/><path d="M272,292H257a12,12,0,0,0,0,24h15a12,12,0,0,0,0-24Z"/><path d="M128,292H104a12,12,0,0,0,0,24h24a12,12,0,0,0,0-24Z"/></g></g></svg>
