<?xml version="1.0" encoding="iso-8859-1"?>
<!-- Generator: Adobe Illustrator 19.0.0, SVG Export Plug-In . SVG Version: 6.00 Build 0)  -->
<svg version="1.1" id="Layer_1" xmlns="http://www.w3.org/2000/svg" xmlns:xlink="http://www.w3.org/1999/xlink" x="0px" y="0px"
	 viewBox="0 0 512 512" style="enable-background:new 0 0 512 512;" xml:space="preserve">
<g>
	<g>
		<g>
			<path d="M511.168,198.56c-0.535-1.288-1.318-2.459-2.304-3.445l-128-128c-2.003-1.988-4.708-3.107-7.531-3.115H10.667
				C4.776,64,0,68.776,0,74.667v362.667C0,443.224,4.776,448,10.667,448h490.667c5.891,0,10.667-4.776,10.667-10.667V202.667
				C511.997,201.256,511.714,199.86,511.168,198.56z M384,100.416L475.584,192H384V100.416z M490.667,426.667H21.333V85.333h341.333
				v117.333c0,5.891,4.776,10.667,10.667,10.667h117.333V426.667z"/>
			<path d="M117.333,170.667h149.333c5.891,0,10.667-4.776,10.667-10.667s-4.776-10.667-10.667-10.667H117.333
				c-5.891,0-10.667,4.776-10.667,10.667S111.442,170.667,117.333,170.667z"/>
			<path d="M117.333,234.667h149.333c5.891,0,10.667-4.776,10.667-10.667c0-5.891-4.776-10.667-10.667-10.667H117.333
				c-5.891,0-10.667,4.776-10.667,10.667C106.667,229.891,111.442,234.667,117.333,234.667z"/>
			<path d="M394.667,341.333H117.333c-5.891,0-10.667,4.776-10.667,10.667s4.776,10.667,10.667,10.667h277.333
				c5.891,0,10.667-4.776,10.667-10.667S400.558,341.333,394.667,341.333z"/>
			<path d="M106.667,288c0,5.891,4.776,10.667,10.667,10.667h277.333c5.891,0,10.667-4.776,10.667-10.667
				s-4.776-10.667-10.667-10.667H117.333C111.442,277.333,106.667,282.109,106.667,288z"/>
		</g>
	</g>
</g>
<g>
</g>
<g>
</g>
<g>
</g>
<g>
</g>
<g>
</g>
<g>
</g>
<g>
</g>
<g>
</g>
<g>
</g>
<g>
</g>
<g>
</g>
<g>
</g>
<g>
</g>
<g>
</g>
<g>
</g>
</svg>
